<svg width="32" height="32" viewBox="0 0 32 32" fill="none" xmlns="http://www.w3.org/2000/svg">
<circle cx="16" cy="16" r="16" fill="white"/>
<path fill-rule="evenodd" clip-rule="evenodd" d="M11.875 9.25226H14.125C14.5375 9.25226 14.875 9.58976 14.875 10.0023V22.0023C14.875 22.4148 14.5375 22.7523 14.125 22.7523H11.875C11.4625 22.7523 11.125 22.4148 11.125 22.0023V10.0023C11.125 9.58976 11.4625 9.25226 11.875 9.25226ZM17.875 9.25226H20.125C20.5375 9.25226 20.875 9.58976 20.875 10.0023V22.0023C20.875 22.4148 20.5375 22.7523 20.125 22.7523H17.875C17.4625 22.7523 17.125 22.4148 17.125 22.0023V10.0023C17.125 9.58976 17.4625 9.25226 17.875 9.25226Z" fill="#BDBDBD"/>
</svg>
