<svg width="32" height="32" viewBox="0 0 32 32" fill="none" xmlns="http://www.w3.org/2000/svg">
<circle cx="16" cy="16" r="16" fill="#2A81B7"/>
<path fill-rule="evenodd" clip-rule="evenodd" d="M16.1739 8.5C15.3349 8.5 14.5303 8.83328 13.9371 9.42653C13.3438 10.0198 13.0105 10.8244 13.0105 11.6634V15.3405C13.0105 16.1795 13.3438 16.9841 13.9371 17.5774C14.5303 18.1706 15.3349 18.5039 16.1739 18.5039C17.0129 18.5039 17.8175 18.1706 18.4108 17.5774C19.004 16.9841 19.3373 16.1795 19.3373 15.3405V11.6634C19.3373 10.8244 19.004 10.0198 18.4108 9.42653C17.8175 8.83328 17.0129 8.5 16.1739 8.5ZM15.3686 21.3927V22.6947C15.3686 23.1394 15.7292 23.5 16.1739 23.5C16.6186 23.5 16.9792 23.1394 16.9792 22.6947V21.3927C19.9678 21.2526 22.3478 18.7852 22.3478 15.7619C22.3478 15.3172 21.9872 14.9566 21.5425 14.9566C21.0978 14.9566 20.7372 15.3172 20.7372 15.7619C20.7372 17.9857 18.9345 19.7884 16.7108 19.7884H16.1886C16.1837 19.7882 16.1788 19.7882 16.1739 19.7882C16.169 19.7882 16.1641 19.7882 16.1592 19.7884H15.637C13.4133 19.7884 11.6106 17.9857 11.6106 15.7619C11.6106 15.3172 11.25 14.9566 10.8053 14.9566C10.3605 14.9566 10 15.3172 10 15.7619C10 18.7852 12.38 21.2526 15.3686 21.3927Z" fill="white"/>
</svg>
