<svg width="24" height="24" viewBox="0 0 24 24" fill="none" xmlns="http://www.w3.org/2000/svg">
<path fill-rule="evenodd" clip-rule="evenodd" d="M15 2C15.5523 2 16 2.44772 16 3V4H17C17.7956 4 18.5587 4.31607 19.1213 4.87868C19.6839 5.44129 20 6.20435 20 7V11C20 11.5523 19.5523 12 19 12H4V19C4 19.2652 4.10536 19.5196 4.29289 19.7071C4.48043 19.8946 4.73478 20 5 20H11.795C12.3473 20 12.795 20.4477 12.795 21C12.795 21.5523 12.3473 22 11.795 22H5C4.20435 22 3.44129 21.6839 2.87868 21.1213C2.31607 20.5587 2 19.7957 2 19V7C2 6.20435 2.31607 5.44129 2.87868 4.87868C3.44129 4.31607 4.20435 4 5 4H6V3C6 2.44772 6.44772 2 7 2C7.55228 2 8 2.44772 8 3V4H14V3C14 2.44772 14.4477 2 15 2ZM18 7V10H4V7C4 6.73478 4.10536 6.48043 4.29289 6.29289C4.48043 6.10536 4.73478 6 5 6H6V7C6 7.55228 6.44772 8 7 8C7.55228 8 8 7.55228 8 7V6H14V7C14 7.55228 14.4477 8 15 8C15.5523 8 16 7.55228 16 7V6H17C17.2652 6 17.5196 6.10536 17.7071 6.29289C17.8946 6.48043 18 6.73478 18 7Z" fill="black"/>
<path d="M19 16.4961C19 15.9438 18.5523 15.4961 18 15.4961C17.4477 15.4961 17 15.9438 17 16.4961V18.0001C17 18.2653 17.1054 18.5197 17.2929 18.7072L18.2929 19.7072C18.6834 20.0977 19.3166 20.0977 19.7071 19.7072C20.0976 19.3167 20.0976 18.6835 19.7071 18.293L19 17.5859V16.4961Z" fill="black"/>
<path fill-rule="evenodd" clip-rule="evenodd" d="M18 13C16.6739 13 15.4021 13.5268 14.4645 14.4645C13.5268 15.4021 13 16.6739 13 18C13 19.3261 13.5268 20.5979 14.4645 21.5355C15.4021 22.4732 16.6739 23 18 23C19.3261 23 20.5979 22.4732 21.5355 21.5355C22.4732 20.5979 23 19.3261 23 18C23 16.6739 22.4732 15.4021 21.5355 14.4645C20.5979 13.5268 19.3261 13 18 13ZM15.8787 15.8787C16.4413 15.3161 17.2044 15 18 15C18.7957 15 19.5587 15.3161 20.1213 15.8787C20.6839 16.4413 21 17.2044 21 18C21 18.7956 20.6839 19.5587 20.1213 20.1213C19.5587 20.6839 18.7956 21 18 21C17.2044 21 16.4413 20.6839 15.8787 20.1213C15.3161 19.5587 15 18.7957 15 18C15 17.2044 15.3161 16.4413 15.8787 15.8787Z" fill="black"/>
</svg>
