<svg width="24" height="24" viewBox="0 0 24 24" fill="none" xmlns="http://www.w3.org/2000/svg">
<path fill-rule="evenodd" clip-rule="evenodd" d="M2 5.27544C2 3.47715 3.45292 2 5.25646 2H8.31177C10.1268 2 11.5682 3.47963 11.5682 5.27544V8.35696C11.5682 10.1636 10.1241 11.6315 8.31177 11.6315H5.25646C3.4556 11.6315 2 10.1661 2 8.35696V5.27544ZM5.25646 3.9209C4.52896 3.9209 3.9209 4.52281 3.9209 5.27544V8.35696C3.9209 9.11503 4.52629 9.71059 5.25646 9.71059H8.31177C9.04852 9.71059 9.64732 9.1175 9.64732 8.35696V5.27544C9.64732 4.52034 9.04584 3.9209 8.31177 3.9209H5.25646ZM12.4318 5.27544C12.4318 3.47963 13.8732 2 15.6882 2H18.7435C20.5471 2 22 3.47715 22 5.27544V8.35696C22 10.1661 20.5444 11.6315 18.7435 11.6315H15.6882C13.8759 11.6315 12.4318 10.1636 12.4318 8.35696V5.27544ZM15.6882 3.9209C14.9542 3.9209 14.3527 4.52034 14.3527 5.27544V8.35696C14.3527 9.1175 14.9515 9.71059 15.6882 9.71059H18.7435C19.4737 9.71059 20.0791 9.11503 20.0791 8.35696V5.27544C20.0791 4.52281 19.471 3.9209 18.7435 3.9209H15.6882ZM2 15.6431C2 13.8344 3.45511 12.3676 5.25646 12.3676H8.31177C10.1246 12.3676 11.5682 13.8369 11.5682 15.6431V18.7246C11.5682 20.5197 10.1266 21.9991 8.31177 21.9991H5.25646C3.45316 21.9991 2 20.5222 2 18.7246V15.6431ZM5.25646 14.2885C4.52677 14.2885 3.9209 14.8845 3.9209 15.6431V18.7246C3.9209 19.4761 4.52872 20.0782 5.25646 20.0782H8.31177C9.04609 20.0782 9.64732 19.4785 9.64732 18.7246V15.6431C9.64732 14.882 9.04803 14.2885 8.31177 14.2885H5.25646ZM12.4318 15.6431C12.4318 13.8369 13.8754 12.3676 15.6882 12.3676H18.7435C20.5449 12.3676 22 13.8344 22 15.6431V18.7246C22 20.5222 20.5468 21.9991 18.7435 21.9991H15.6882C13.8734 21.9991 12.4318 20.5197 12.4318 18.7246V15.6431ZM15.6882 14.2885C14.952 14.2885 14.3527 14.882 14.3527 15.6431V18.7246C14.3527 19.4785 14.9539 20.0782 15.6882 20.0782H18.7435C19.4713 20.0782 20.0791 19.4761 20.0791 18.7246V15.6431C20.0791 14.8845 19.4732 14.2885 18.7435 14.2885H15.6882Z" fill="black"/>
</svg>
