<svg width="24" height="24" viewBox="0 0 24 24" fill="none" xmlns="http://www.w3.org/2000/svg">
<path fill-rule="evenodd" clip-rule="evenodd" d="M7 2C5.67392 2 4.40215 2.52678 3.46447 3.46447C2.52678 4.40215 2 5.67392 2 7C2 8.32608 2.52678 9.59785 3.46447 10.5355C4.40215 11.4732 5.67392 12 7 12C8.32608 12 9.59785 11.4732 10.5355 10.5355C11.4732 9.59785 12 8.32608 12 7C12 5.67392 11.4732 4.40215 10.5355 3.46447C9.59785 2.52678 8.32608 2 7 2ZM6 4.17157C5.5821 4.31933 5.19808 4.55927 4.87868 4.87868C4.31607 5.44129 4 6.20435 4 7C4 7.79565 4.31607 8.55871 4.87868 9.12132C5.44129 9.68393 6.20435 10 7 10C7.79565 10 8.55871 9.68393 9.12132 9.12132C9.44073 8.80192 9.68067 8.4179 9.82843 8H7C6.44772 8 6 7.55228 6 7V4.17157ZM9.82843 6H8V4.17157C8.4179 4.31933 8.80192 4.55927 9.12132 4.87868C9.44073 5.19808 9.68067 5.5821 9.82843 6Z" fill="black"/>
<path fill-rule="evenodd" clip-rule="evenodd" d="M9 16C9.55228 16 10 16.4477 10 17V21C10 21.5523 9.55228 22 9 22C8.44772 22 8 21.5523 8 21V17C8 16.4477 8.44772 16 9 16Z" fill="black"/>
<path fill-rule="evenodd" clip-rule="evenodd" d="M17 13C17.5523 13 18 13.4477 18 14V21C18 21.5523 17.5523 22 17 22C16.4477 22 16 21.5523 16 21V14C16 13.4477 16.4477 13 17 13Z" fill="black"/>
<path fill-rule="evenodd" clip-rule="evenodd" d="M13 12C13.5523 12 14 12.4477 14 13V21C14 21.5523 13.5523 22 13 22C12.4477 22 12 21.5523 12 21V13C12 12.4477 12.4477 12 13 12Z" fill="black"/>
<path fill-rule="evenodd" clip-rule="evenodd" d="M21 11C21.5523 11 22 11.4477 22 12V21C22 21.5523 21.5523 22 21 22C20.4477 22 20 21.5523 20 21V12C20 11.4477 20.4477 11 21 11Z" fill="black"/>
</svg>
