<svg width="24" height="24" viewBox="0 0 24 24" fill="none" xmlns="http://www.w3.org/2000/svg">
<path d="M15.7071 10.7071C16.0976 10.3166 16.0976 9.68342 15.7071 9.29289C15.3166 8.90237 14.6834 8.90237 14.2929 9.29289L11 12.5858L9.70711 11.2929C9.31658 10.9024 8.68342 10.9024 8.29289 11.2929C7.90237 11.6834 7.90237 12.3166 8.29289 12.7071L10.2929 14.7071C10.6834 15.0976 11.3166 15.0976 11.7071 14.7071L15.7071 10.7071Z" fill="black"/>
<path fill-rule="evenodd" clip-rule="evenodd" d="M12.01 2.01123C11.5882 2.01123 11.1706 2.0946 10.7812 2.25654C10.3923 2.41827 10.0392 2.65518 9.74204 2.95369L9.74088 2.95486L9.04486 3.65088L9.04399 3.65174C8.81946 3.87456 8.51602 3.99972 8.19966 3.99997H7.19997C6.35128 3.99997 5.53735 4.33712 4.93723 4.93723C4.33712 5.53735 3.99997 6.35128 3.99997 7.19997V8.19966C3.99972 8.51602 3.87456 8.81946 3.65174 9.04399L3.65088 9.04486L2.95486 9.74088L2.95369 9.74204C2.65518 10.0392 2.41827 10.3923 2.25654 10.7812C2.0946 11.1706 2.01123 11.5882 2.01123 12.01C2.01123 12.4317 2.0946 12.8493 2.25654 13.2387C2.41829 13.6277 2.65524 13.9808 2.95379 14.278L2.95486 14.2791L3.65088 14.9751L3.65174 14.976C3.87456 15.2005 3.99972 15.5039 3.99997 15.8203V16.82C3.99997 17.6687 4.33711 18.4826 4.93723 19.0827C5.53735 19.6828 6.35128 20.02 7.19997 20.02H8.1994C8.51594 20.0202 8.82024 20.1461 9.04486 20.3691L9.74088 21.0651L9.74199 21.0662C10.0391 21.3647 10.3923 21.6017 10.7812 21.7634C11.1706 21.9253 11.5882 22.0087 12.01 22.0087C12.4317 22.0087 12.8493 21.9253 13.2387 21.7634C13.6275 21.6017 13.9806 21.3649 14.2777 21.0664L14.2791 21.0651L14.9751 20.3691L14.976 20.3682C15.2005 20.1453 15.5041 20.0202 15.8205 20.02H16.82C17.6687 20.02 18.4826 19.6828 19.0827 19.0827C19.6828 18.4826 20.02 17.6687 20.02 16.82V15.8205C20.0202 15.5041 20.1453 15.2005 20.3682 14.976L20.3691 14.9751L21.0651 14.2791L21.0664 14.2777C21.3649 13.9806 21.6017 13.6275 21.7634 13.2387C21.9253 12.8493 22.0087 12.4317 22.0087 12.01C22.0087 11.5882 21.9253 11.1706 21.7634 10.7812C21.6017 10.3923 21.3647 10.0391 21.0662 9.74199L21.0651 9.74088L20.3684 9.04414C20.1452 8.81965 20.02 8.51548 20.02 8.19997V7.19997C20.02 6.35128 19.6828 5.53735 19.0827 4.93723C18.4826 4.33711 17.6687 3.99997 16.82 3.99997H15.82C15.5046 3.99997 15.2006 3.87488 14.9761 3.6519L14.9754 3.65115L14.2791 2.95486L14.278 2.95379C13.9808 2.65524 13.6277 2.41829 13.2387 2.25654C12.8493 2.0946 12.4317 2.01123 12.01 2.01123ZM11.5492 4.10322C11.6952 4.04249 11.8518 4.01123 12.01 4.01123C12.1681 4.01123 12.3247 4.04249 12.4707 4.10322C12.6168 4.16395 12.7494 4.25294 12.8609 4.36509L12.8629 4.36708L13.5629 5.06708L13.5646 5.0688C14.1641 5.66535 14.9757 5.99997 15.82 5.99997H16.82C17.1382 5.99997 17.4435 6.1264 17.6685 6.35145C17.8935 6.57649 18.02 6.88171 18.02 7.19997V8.19997C18.02 9.04425 18.3546 9.8559 18.9511 10.4554L18.9529 10.4571L19.6529 11.1571L19.6549 11.1591C19.767 11.2706 19.856 11.4032 19.9167 11.5492C19.9775 11.6952 20.0087 11.8518 20.0087 12.01C20.0087 12.1681 19.9775 12.3247 19.9167 12.4707C19.856 12.6168 19.767 12.7494 19.6549 12.8609L19.6529 12.8629L18.9529 13.5629L18.9509 13.5649C18.3551 14.164 18.0205 14.975 18.02 15.82V16.82C18.02 17.1382 17.8935 17.4435 17.6685 17.6685C17.4435 17.8935 17.1382 18.02 16.82 18.02H15.8194C14.9745 18.0205 14.164 18.3551 13.5649 18.9509L13.5629 18.9529L12.8629 19.6529L12.8609 19.6549C12.7494 19.767 12.6168 19.856 12.4707 19.9167C12.3247 19.9775 12.1681 20.0087 12.01 20.0087C11.8518 20.0087 11.6952 19.9775 11.5492 19.9167C11.4032 19.856 11.2706 19.767 11.1591 19.6549L10.4571 18.9529L10.4551 18.9509C9.85595 18.3551 9.04492 18.0205 8.19997 18.02H7.19997C6.88171 18.02 6.57649 17.8935 6.35145 17.6685C6.1264 17.4435 5.99997 17.1382 5.99997 16.82L5.99997 15.8194C5.99949 14.9745 5.66485 14.164 5.06907 13.5649L4.36708 12.8629L4.36509 12.8609C4.25294 12.7494 4.16395 12.6168 4.10322 12.4707C4.04249 12.3247 4.01123 12.1681 4.01123 12.01C4.01123 11.8518 4.04249 11.6952 4.10322 11.5492C4.16395 11.4032 4.25294 11.2706 4.36509 11.1591L4.36708 11.1571L5.06708 10.4571L5.06906 10.4551C5.66485 9.85595 5.99949 9.04492 5.99997 8.19997V7.19997C5.99997 6.88171 6.1264 6.57649 6.35145 6.35145C6.57649 6.1264 6.88171 5.99997 7.19997 5.99997L8.20054 5.99997C9.04549 5.99949 9.85595 5.66485 10.4551 5.06906L10.4571 5.06708L11.1571 4.36708L11.1591 4.36509C11.2706 4.25294 11.4032 4.16395 11.5492 4.10322Z" fill="black"/>
</svg>
