<svg width="24" height="24" viewBox="0 0 24 24" fill="none" xmlns="http://www.w3.org/2000/svg">
<path fill-rule="evenodd" clip-rule="evenodd" d="M5.02749 5.98457C6.95297 4.59734 9.35246 3.42859 12 3.42859C14.6476 3.42859 17.047 4.59734 18.9725 5.98457C20.905 7.37683 22.4349 9.04281 23.3609 10.1621L23.3686 10.1716C23.7823 10.6862 24 11.3384 24 12.0001C24 12.6619 23.7823 13.314 23.3686 13.8286L23.3609 13.8381C22.4349 14.9574 20.905 16.6234 18.9725 18.0156C17.047 19.4028 14.6476 20.5716 12 20.5716C9.35246 20.5716 6.95297 19.4028 5.02749 18.0156C3.09504 16.6234 1.56519 14.9574 0.639069 13.8381L0.631337 13.8286C0.217757 13.314 0 12.6619 0 12.0001C0 11.3384 0.217757 10.6862 0.631337 10.1716L0.639069 10.1621C1.56519 9.04281 3.09504 7.37683 5.02749 5.98457ZM12 15.8572C14.1302 15.8572 15.8571 14.1303 15.8571 12C15.8571 9.86978 14.1302 8.14287 12 8.14287C9.86976 8.14287 8.14286 9.86978 8.14286 12C8.14286 14.1303 9.86976 15.8572 12 15.8572Z" fill="black"/>
</svg>
