<svg width="24" height="24" viewBox="0 0 24 24" fill="none" xmlns="http://www.w3.org/2000/svg">
<path fill-rule="evenodd" clip-rule="evenodd" d="M7.02513 6.02513C7.6815 5.36875 8.57174 5 9.5 5C10.4283 5 11.3185 5.36875 11.9749 6.02513C12.6313 6.6815 13 7.57174 13 8.5C13 9.42826 12.6313 10.3185 11.9749 10.9749C11.3185 11.6313 10.4283 12 9.5 12C8.57174 12 7.6815 11.6313 7.02513 10.9749C6.36875 10.3185 6 9.42826 6 8.5C6 7.57174 6.36875 6.6815 7.02513 6.02513ZM9.5 7C9.10218 7 8.72064 7.15804 8.43934 7.43934C8.15804 7.72064 8 8.10217 8 8.5C8 8.89783 8.15804 9.27936 8.43934 9.56066C8.72064 9.84196 9.10217 10 9.5 10C9.89783 10 10.2794 9.84196 10.5607 9.56066C10.842 9.27936 11 8.89783 11 8.5C11 8.10217 10.842 7.72064 10.5607 7.43934C10.2794 7.15804 9.89782 7 9.5 7Z" fill="black"/>
<path d="M20 3C20 2.44772 19.5523 2 19 2C18.4477 2 18 2.44772 18 3V5H16C15.4477 5 15 5.44772 15 6C15 6.55228 15.4477 7 16 7H18V9C18 9.55228 18.4477 10 19 10C19.5523 10 20 9.55228 20 9V7H22C22.5523 7 23 6.55228 23 6C23 5.44772 22.5523 5 22 5H20V3Z" fill="black"/>
<path fill-rule="evenodd" clip-rule="evenodd" d="M4 12C4 8.39285 4.47511 6.5391 5.50711 5.50711C6.5391 4.47511 8.39285 4 12 4C13.1043 4 14.0585 4.04339 14.8842 4.13963C15.4328 4.20357 15.9293 3.8107 15.9933 3.26213C16.0572 2.71356 15.6643 2.21702 15.1158 2.15308C14.1881 2.04496 13.1515 2 12 2C8.40715 2 5.7609 2.42489 4.09289 4.09289C2.42489 5.7609 2 8.40715 2 12C2 15.5929 2.42489 18.2391 4.09289 19.9071C5.7609 21.5751 8.40715 22 12 22C15.5929 22 18.2391 21.5751 19.9071 19.9071C21.5751 18.2391 22 15.5929 22 12C22 11.6464 21.9958 11.3041 21.9868 10.9729C21.9718 10.4209 21.5122 9.98542 20.9601 10.0004C20.408 10.0153 19.9726 10.475 19.9875 11.0271C19.9959 11.3382 20 11.6623 20 12C20 12.315 19.9964 12.6166 19.9891 12.9055C18.9726 11.907 17.6178 11 15.5 11C14.4617 11 13.5362 11.4338 12.7438 12.0281C11.9532 12.6211 11.2332 13.4193 10.5824 14.2653C9.73351 15.3688 8.91043 16.6867 8.17967 17.8567C7.817 18.4374 7.47703 18.9817 7.16797 19.4453L7.20791 19.4719C6.4683 19.2318 5.92146 18.9072 5.50711 18.4929C4.47511 17.4609 4 15.6071 4 12ZM9.2733 19.8773C10.049 19.9598 10.9503 20 12 20C15.6071 20 17.4609 19.5249 18.4929 18.4929C19.0985 17.8872 19.5124 16.9986 19.751 15.6385C19.5812 15.4529 19.4216 15.2723 19.2679 15.0984C18.1963 13.8863 17.4129 13 15.5 13C15.0384 13 14.5263 13.1912 13.9438 13.6281C13.3594 14.0664 12.7669 14.7057 12.1676 15.4847C11.3721 16.519 10.6569 17.6663 9.96188 18.7814C9.73088 19.152 9.50208 19.5191 9.2733 19.8773Z" fill="black"/>
</svg>
