<svg width="24" height="24" viewBox="0 0 24 24" fill="none" xmlns="http://www.w3.org/2000/svg">
<path fill-rule="evenodd" clip-rule="evenodd" d="M9 3C9.16797 3 9.32627 3.04141 9.46525 3.11459L15 5.88197L20.5528 3.10557C20.8628 2.95058 21.2309 2.96714 21.5257 3.14935C21.8205 3.33156 22 3.65342 22 4V17C22 17.3788 21.786 17.725 21.4472 17.8944L15.4652 20.8854C15.3342 20.9544 15.186 20.9952 15.0287 20.9996C15.0192 20.9999 15.0096 21 15 21C14.9859 21 14.9718 20.9997 14.9578 20.9991C14.8055 20.9928 14.6621 20.9524 14.5348 20.8854L9 18.118L3.44721 20.8944C3.13723 21.0494 2.76909 21.0329 2.47427 20.8507C2.17945 20.6684 2 20.3466 2 20V7C2 6.62123 2.214 6.27497 2.55279 6.10557L8.53475 3.11459C8.67373 3.04141 8.83203 3 9 3ZM16 18.382L20 16.382V5.61804L16 7.61803V18.382ZM14 7.61803V18.382L10 16.382V5.61804L14 7.61803ZM4 7.61804L8 5.61804V16.382L4 18.382V7.61804Z" fill="black"/>
</svg>
