<svg width="24" height="24" viewBox="0 0 24 24" fill="none" xmlns="http://www.w3.org/2000/svg">
<path d="M13 11C13 10.4477 12.5523 10 12 10C11.4477 10 11 10.4477 11 11V11.01C11 11.5623 11.4477 12.01 12 12.01C12.5523 12.01 13 11.5623 13 11.01V11Z" fill="black"/>
<path d="M8 10C8.55228 10 9 10.4477 9 11V11.01C9 11.5623 8.55228 12.01 8 12.01C7.44772 12.01 7 11.5623 7 11.01V11C7 10.4477 7.44772 10 8 10Z" fill="black"/>
<path d="M17 11C17 10.4477 16.5523 10 16 10C15.4477 10 15 10.4477 15 11V11.01C15 11.5623 15.4477 12.01 16 12.01C16.5523 12.01 17 11.5623 17 11.01V11Z" fill="black"/>
<path fill-rule="evenodd" clip-rule="evenodd" d="M7 4C5.93913 4 4.92172 4.42143 4.17157 5.17157C3.42143 5.92172 3 6.93913 3 8V21C3 21.4045 3.24364 21.7691 3.61732 21.9239C3.99099 22.0787 4.42111 21.9931 4.70711 21.7071L8.41421 18H17C18.0609 18 19.0783 17.5786 19.8284 16.8284C20.5786 16.0783 21 15.0609 21 14V8C21 6.93913 20.5786 5.92172 19.8284 5.17157C19.0783 4.42143 18.0609 4 17 4H7ZM5.58579 6.58579C5.96086 6.21071 6.46957 6 7 6H17C17.5304 6 18.0391 6.21071 18.4142 6.58579C18.7893 6.96086 19 7.46957 19 8V14C19 14.5304 18.7893 15.0391 18.4142 15.4142C18.0391 15.7893 17.5304 16 17 16H8C7.73478 16 7.48043 16.1054 7.29289 16.2929L5 18.5858V8C5 7.46957 5.21071 6.96086 5.58579 6.58579Z" fill="black"/>
</svg>
