<svg width="12" height="12" viewBox="0 0 12 12" fill="none" xmlns="http://www.w3.org/2000/svg">
<path fill-rule="evenodd" clip-rule="evenodd" d="M9 0.447266C8.66483 0.447266 8.33294 0.513283 8.02328 0.641547C7.71363 0.769811 7.43226 0.957811 7.19526 1.19481L0.195262 8.19481C0.0702379 8.31984 0 8.48941 0 8.66622V11.3329C0 11.7011 0.298477 11.9995 0.666667 11.9995H3.33333C3.51014 11.9995 3.67971 11.9293 3.80474 11.8043L10.1303 5.47872C10.1329 5.4762 10.1355 5.47365 10.1381 5.47108C10.1406 5.46851 10.1432 5.46592 10.1457 5.46331L10.8047 4.80429C11.0417 4.56729 11.2297 4.28593 11.358 3.97627C11.4863 3.66661 11.5523 3.33472 11.5523 2.99955C11.5523 2.66438 11.4863 2.33249 11.358 2.02283C11.2297 1.71318 11.0417 1.43181 10.8047 1.19481C10.5677 0.957811 10.2864 0.769811 9.97672 0.641547C9.66706 0.513283 9.33517 0.447266 9 0.447266ZM9.6666 4.0568L9.86193 3.86148C9.97512 3.74829 10.0649 3.61391 10.1262 3.46602C10.1874 3.31813 10.219 3.15963 10.219 2.99955C10.219 2.83947 10.1874 2.68097 10.1262 2.53308C10.0649 2.38519 9.97512 2.25081 9.86193 2.13762C9.74874 2.02443 9.61436 1.93464 9.46647 1.87339C9.31858 1.81213 9.16007 1.7806 9 1.7806C8.83993 1.7806 8.68142 1.81213 8.53353 1.87339C8.38564 1.93464 8.25126 2.02443 8.13807 2.13762L7.94275 2.33295L9.6666 4.0568ZM6.99994 3.27575L1.33333 8.94236V10.6662H3.05719L8.7238 4.99961L6.99994 3.27575Z" fill="black"/>
</svg>
