<svg width="24" height="24" viewBox="0 0 24 24" fill="none" xmlns="http://www.w3.org/2000/svg">
<path fill-rule="evenodd" clip-rule="evenodd" d="M16.9499 6.05035L16.9498 6.05027C15.6371 4.7375 13.8566 4 12.0001 4C10.1435 4 8.36303 4.7375 7.05027 6.05027C5.7375 7.36303 5 9.14353 5 11.0001C5 12.8565 5.73744 14.6369 7.0501 15.9497C7.05016 15.9497 7.05021 15.9498 7.05027 15.9498L11.2714 20.17L11.3605 20.2535C11.5487 20.4102 11.7881 20.4926 12.0333 20.4845C12.2868 20.4762 12.5276 20.3718 12.707 20.1927C12.7071 20.1926 12.7072 20.1925 12.7073 20.1924L16.9379 15.9627L17.1177 15.7768C18.3542 14.452 19.0289 12.6992 18.9995 10.8869C18.9701 9.06978 18.2351 7.33534 16.9499 6.05035ZM18.5671 17.1551C20.1649 15.4502 21.0372 13.1908 20.9993 10.8545C20.9614 8.51817 20.0164 6.28819 18.3641 4.63606C16.6762 2.94822 14.387 2 12.0001 2C9.61309 2 7.32389 2.94822 5.63606 4.63606C3.94822 6.32389 3 8.61309 3 11.0001C3 13.387 3.94822 15.6762 5.63606 17.3641L9.88006 21.6071L10.0241 21.7421C10.5967 22.2435 11.3385 22.5085 12.0992 22.4834C12.8599 22.4584 13.5827 22.1451 14.1211 21.6071L18.3641 17.3651L18.5671 17.1551ZM10.0866 6.38066C10.6933 6.12938 11.3434 6.00006 12.0001 6.00006C13.3261 6.00006 14.5979 6.52684 15.5356 7.46452C16.4733 8.4022 17.0001 9.67397 17.0001 11.0001C17.0001 12.3261 16.4733 13.5979 15.5356 14.5356C14.5979 15.4733 13.3261 16.0001 12.0001 16.0001C11.3434 16.0001 10.6933 15.8707 10.0866 15.6195C9.48001 15.3682 8.92881 14.9999 8.46452 14.5356C8.00023 14.0713 7.63193 13.5201 7.38066 12.9135C7.12938 12.3068 7.00006 11.6567 7.00006 11.0001C7.00006 10.3434 7.12938 9.69327 7.38066 9.08664C7.63193 8.48001 8.00023 7.92881 8.46452 7.46452C8.92881 7.00023 9.48001 6.63193 10.0866 6.38066ZM10.852 8.22842C11.216 8.07765 11.6061 8.00006 12.0001 8.00006C12.7957 8.00006 13.5588 8.31613 14.1214 8.87873C14.684 9.44134 15.0001 10.2044 15.0001 11.0001C15.0001 11.7957 14.684 12.5588 14.1214 13.1214C13.5588 13.684 12.7957 14.0001 12.0001 14.0001C11.6061 14.0001 11.216 13.9225 10.852 13.7717C10.488 13.6209 10.1573 13.4 9.87873 13.1214C9.60016 12.8428 9.37918 12.5121 9.22842 12.1481C9.07765 11.7841 9.00006 11.394 9.00006 11.0001C9.00006 10.6061 9.07765 10.216 9.22842 9.85201C9.37918 9.48803 9.60016 9.15731 9.87873 8.87873C10.1573 8.60016 10.488 8.37918 10.852 8.22842Z" fill="black"/>
</svg>
