<svg width="24" height="24" viewBox="0 0 24 24" fill="none" xmlns="http://www.w3.org/2000/svg">
<path d="M17.7071 2.29289C17.3166 1.90237 16.6834 1.90237 16.2929 2.29289C15.9024 2.68342 15.9024 3.31658 16.2929 3.70711L17.5858 5H7C5.93913 5 4.92172 5.42143 4.17157 6.17157C3.42143 6.92172 3 7.93913 3 9V12C3 12.5523 3.44772 13 4 13C4.55228 13 5 12.5523 5 12V9C5 8.46957 5.21071 7.96086 5.58579 7.58579C5.96086 7.21071 6.46957 7 7 7H17.5858L16.2929 8.29289C15.9024 8.68342 15.9024 9.31658 16.2929 9.70711C16.6834 10.0976 17.3166 10.0976 17.7071 9.70711L20.7071 6.70711C21.0976 6.31658 21.0976 5.68342 20.7071 5.29289L17.7071 2.29289Z" fill="black"/>
<path d="M21 15V12C21 11.4477 20.5523 11 20 11C19.4477 11 19 11.4477 19 12V15C19 15.5304 18.7893 16.0391 18.4142 16.4142C18.0391 16.7893 17.5304 17 17 17H6.41421L7.70711 15.7071C8.09763 15.3166 8.09763 14.6834 7.70711 14.2929C7.31658 13.9024 6.68342 13.9024 6.29289 14.2929L3.29289 17.2929C2.90237 17.6834 2.90237 18.3166 3.29289 18.7071L6.29289 21.7071C6.68342 22.0976 7.31658 22.0976 7.70711 21.7071C8.09763 21.3166 8.09763 20.6834 7.70711 20.2929L6.41421 19H17C18.0609 19 19.0783 18.5786 19.8284 17.8284C20.5786 17.0783 21 16.0609 21 15Z" fill="black"/>
</svg>
