<svg width="16" height="16" viewBox="0 0 16 16" fill="none" xmlns="http://www.w3.org/2000/svg">
<path fill-rule="evenodd" clip-rule="evenodd" d="M9.9628 6.81477C9.9628 8.55345 8.55333 9.96292 6.81465 9.96292C5.07598 9.96292 3.6665 8.55345 3.6665 6.81477C3.6665 5.0761 5.07598 3.66663 6.81465 3.66663C8.55333 3.66663 9.9628 5.0761 9.9628 6.81477ZM9.45618 10.0133C8.73871 10.6065 7.81831 10.9629 6.81465 10.9629C4.52369 10.9629 2.6665 9.10573 2.6665 6.81477C2.6665 4.52382 4.52369 2.66663 6.81465 2.66663C9.10561 2.66663 10.9628 4.52382 10.9628 6.81477C10.9628 7.74161 10.6588 8.59744 10.1452 9.28803L14.0403 13.1832L13.3332 13.8903L9.45618 10.0133Z" fill="#101219"/>
</svg>
