<svg width="20" height="20" viewBox="0 0 20 20" fill="none" xmlns="http://www.w3.org/2000/svg">
<path fill-rule="evenodd" clip-rule="evenodd" d="M12.4539 8.51856C12.4539 10.6919 10.692 12.4537 8.51868 12.4537C6.34534 12.4537 4.5835 10.6919 4.5835 8.51856C4.5835 6.34522 6.34534 4.58337 8.51868 4.58337C10.692 4.58337 12.4539 6.34522 12.4539 8.51856ZM11.8206 12.5167C10.9238 13.2582 9.77325 13.7037 8.51868 13.7037C5.65498 13.7037 3.3335 11.3823 3.3335 8.51856C3.3335 5.65486 5.65498 3.33337 8.51868 3.33337C11.3824 3.33337 13.7039 5.65486 13.7039 8.51856C13.7039 9.6771 13.3239 10.7469 12.6818 11.6101L17.5507 16.479L16.6668 17.3629L11.8206 12.5167Z" fill="#101219"/>
</svg>
