<svg width="24" height="24" viewBox="0 0 24 24" fill="none" xmlns="http://www.w3.org/2000/svg">
<path d="M13 9C13 8.44772 12.5523 8 12 8C11.4477 8 11 8.44772 11 9V11H9C8.44772 11 8 11.4477 8 12C8 12.5523 8.44772 13 9 13H11V15C11 15.5523 11.4477 16 12 16C12.5523 16 13 15.5523 13 15V13H15C15.5523 13 16 12.5523 16 12C16 11.4477 15.5523 11 15 11H13V9Z" fill="black"/>
<path fill-rule="evenodd" clip-rule="evenodd" d="M10.0395 2.05312C10.6509 2.01644 11.3039 2 12 2C12.6961 2 13.3491 2.01644 13.9605 2.05312C14.5118 2.08619 14.9319 2.55992 14.8989 3.11121C14.8658 3.6625 14.3921 4.08261 13.8408 4.04953C13.2776 4.01575 12.6656 4 12 4C11.3344 4 10.7224 4.01575 10.1592 4.04953C9.60792 4.08261 9.1342 3.6625 9.10113 3.11121C9.06806 2.55992 9.48816 2.08619 10.0395 2.05312ZM7.30476 3.38316C7.51731 3.89291 7.27637 4.47844 6.76663 4.69098C5.75265 5.11377 5.11377 5.75265 4.69098 6.76663C4.47844 7.27637 3.89291 7.51731 3.38316 7.30476C2.87341 7.09222 2.63248 6.50669 2.84502 5.99694C3.47069 4.49637 4.49637 3.47069 5.99694 2.84502C6.50669 2.63248 7.09222 2.87341 7.30476 3.38316ZM16.6952 3.38316C16.9078 2.87341 17.4933 2.63248 18.0031 2.84502C19.5036 3.47069 20.5293 4.49637 21.155 5.99694C21.3675 6.50669 21.1266 7.09222 20.6168 7.30476C20.1071 7.51731 19.5216 7.27637 19.309 6.76663C18.8862 5.75265 18.2474 5.11377 17.2334 4.69098C16.7236 4.47844 16.4827 3.89291 16.6952 3.38316ZM3.11121 9.10113C3.6625 9.1342 4.08261 9.60792 4.04953 10.1592C4.01575 10.7224 4 11.3344 4 12C4 12.6656 4.01575 13.2776 4.04953 13.8408C4.08261 14.3921 3.6625 14.8658 3.11121 14.8989C2.55992 14.9319 2.08619 14.5118 2.05312 13.9605C2.01644 13.3491 2 12.6961 2 12C2 11.3039 2.01644 10.6509 2.05312 10.0395C2.08619 9.48816 2.55992 9.06806 3.11121 9.10113ZM20.8888 9.10113C21.4401 9.06806 21.9138 9.48816 21.9469 10.0395C21.9836 10.6509 22 11.3039 22 12C22 12.6961 21.9836 13.3491 21.9469 13.9605C21.9138 14.5118 21.4401 14.9319 20.8888 14.8989C20.3375 14.8658 19.9174 14.3921 19.9505 13.8408C19.9843 13.2776 20 12.6656 20 12C20 11.3344 19.9843 10.7224 19.9505 10.1592C19.9174 9.60792 20.3375 9.1342 20.8888 9.10113ZM3.38316 16.6952C3.89291 16.4827 4.47844 16.7236 4.69098 17.2334C5.11377 18.2474 5.75265 18.8862 6.76663 19.309C7.27637 19.5216 7.51731 20.1071 7.30476 20.6168C7.09222 21.1266 6.50669 21.3675 5.99694 21.155C4.49637 20.5293 3.47069 19.5036 2.84502 18.0031C2.63248 17.4933 2.87341 16.9078 3.38316 16.6952ZM20.6168 16.6952C21.1266 16.9078 21.3675 17.4933 21.155 18.0031C20.5293 19.5036 19.5036 20.5293 18.0031 21.155C17.4933 21.3675 16.9078 21.1266 16.6952 20.6168C16.4827 20.1071 16.7236 19.5216 17.2334 19.309C18.2474 18.8862 18.8862 18.2474 19.309 17.2334C19.5216 16.7236 20.1071 16.4827 20.6168 16.6952ZM9.10113 20.8888C9.1342 20.3375 9.60792 19.9174 10.1592 19.9505C10.7224 19.9843 11.3344 20 12 20C12.6656 20 13.2776 19.9843 13.8408 19.9505C14.3921 19.9174 14.8658 20.3375 14.8989 20.8888C14.9319 21.4401 14.5118 21.9138 13.9605 21.9469C13.3491 21.9836 12.6961 22 12 22C11.3039 22 10.6509 21.9836 10.0395 21.9469C9.48816 21.9138 9.06806 21.4401 9.10113 20.8888Z" fill="black"/>
</svg>
