<svg width="24" height="24" viewBox="0 0 24 24" fill="none" xmlns="http://www.w3.org/2000/svg">
<path fill-rule="evenodd" clip-rule="evenodd" d="M4.09289 4.09289C5.7609 2.42489 8.40715 2 12 2C15.5929 2 18.2391 2.42489 19.9071 4.09289C21.5751 5.7609 22 8.40715 22 12C22 15.5929 21.5751 18.2391 19.9071 19.9071C18.2391 21.5751 15.5929 22 12 22C8.40715 22 5.7609 21.5751 4.09289 19.9071C2.42489 18.2391 2 15.5929 2 12C2 8.40715 2.42489 5.7609 4.09289 4.09289ZM12 8C12.5523 8 13 8.44772 13 9V11H15C15.5523 11 16 11.4477 16 12C16 12.5523 15.5523 13 15 13H13V15C13 15.5523 12.5523 16 12 16C11.4477 16 11 15.5523 11 15V13H9C8.44772 13 8 12.5523 8 12C8 11.4477 8.44772 11 9 11H11V9C11 8.44772 11.4477 8 12 8Z" fill="black"/>
</svg>
