<svg width="24" height="24" viewBox="0 0 24 24" fill="none" xmlns="http://www.w3.org/2000/svg">
<path fill-rule="evenodd" clip-rule="evenodd" d="M10 2C9.46957 2 8.96086 2.21071 8.58579 2.58579C8.21071 2.96086 8 3.46957 8 4V6H4C3.44772 6 3 6.44772 3 7C3 7.55228 3.44772 8 4 8H4.07992L5.0004 19.0458C5.01228 19.8249 5.32693 20.5696 5.87874 21.1214C6.44134 21.684 7.20441 22.0001 8.00006 22.0001H16.0001C16.7957 22.0001 17.5588 21.684 18.1214 21.1214C18.6732 20.5696 18.9878 19.8249 18.9997 19.0458L19.9202 8H20C20.5523 8 21 7.55228 21 7C21 6.44772 20.5523 6 20 6H16V4C16 3.46957 15.7893 2.96086 15.4142 2.58579C15.0391 2.21071 14.5304 2 14 2H10ZM14 6V4H10V6H14ZM9 8H6.08685L6.9966 18.917C6.9989 18.9446 7.00006 18.9723 7.00006 19.0001C7.00006 19.2653 7.10541 19.5196 7.29295 19.7072C7.48049 19.8947 7.73484 20.0001 8.00006 20.0001H16.0001C16.2653 20.0001 16.5196 19.8947 16.7072 19.7072C16.8947 19.5196 17.0001 19.2653 17.0001 19.0001C17.0001 18.9723 17.0012 18.9446 17.0035 18.917L17.9133 8H15H9ZM10 10C10.5523 10 11 10.4477 11 11V17C11 17.5523 10.5523 18 10 18C9.44772 18 9 17.5523 9 17V11C9 10.4477 9.44772 10 10 10ZM15 11C15 10.4477 14.5523 10 14 10C13.4477 10 13 10.4477 13 11V17C13 17.5523 13.4477 18 14 18C14.5523 18 15 17.5523 15 17V11Z" fill="black"/>
</svg>
