<svg width="24" height="24" viewBox="0 0 24 24" fill="none" xmlns="http://www.w3.org/2000/svg">
<path d="M12 2C12.5523 2 13 2.44772 13 3V4C13 4.55228 12.5523 5 12 5C11.4477 5 11 4.55228 11 4V3C11 2.44772 11.4477 2 12 2Z" fill="black"/>
<path d="M4.89289 4.89289C5.28342 4.50237 5.91658 4.50237 6.30711 4.89289L7.00711 5.59289C7.39763 5.98342 7.39763 6.61658 7.00711 7.00711C6.61658 7.39763 5.98342 7.39763 5.59289 7.00711L4.89289 6.30711C4.50237 5.91658 4.50237 5.28342 4.89289 4.89289Z" fill="black"/>
<path d="M19.1071 4.89289C19.4976 5.28342 19.4976 5.91658 19.1071 6.30711L18.4071 7.00711C18.0166 7.39763 17.3834 7.39763 16.9929 7.00711C16.6024 6.61658 16.6024 5.98342 16.9929 5.59289L17.6929 4.89289C18.0834 4.50237 18.7166 4.50237 19.1071 4.89289Z" fill="black"/>
<path d="M2 12C2 11.4477 2.44772 11 3 11H4C4.55228 11 5 11.4477 5 12C5 12.5523 4.55228 13 4 13H3C2.44772 13 2 12.5523 2 12Z" fill="black"/>
<path d="M19 12C19 11.4477 19.4477 11 20 11H21C21.5523 11 22 11.4477 22 12C22 12.5523 21.5523 13 21 13H20C19.4477 13 19 12.5523 19 12Z" fill="black"/>
<path fill-rule="evenodd" clip-rule="evenodd" d="M7 15C6.46957 15 5.96086 15.2107 5.58579 15.5858C5.21071 15.9609 5 16.4696 5 17V19C5 19.5304 5.21071 20.0391 5.58579 20.4142C5.96086 20.7893 6.46957 21 7 21H17C17.5304 21 18.0391 20.7893 18.4142 20.4142C18.7893 20.0391 19 19.5304 19 19V17C19 16.4696 18.7893 15.9609 18.4142 15.5858C18.0391 15.2107 17.5304 15 17 15V12C17 10.6739 16.4732 9.40215 15.5355 8.46447C14.5979 7.52678 13.3261 7 12 7C10.6739 7 9.40215 7.52678 8.46447 8.46447C7.52678 9.40215 7 10.6739 7 12V15ZM12 9C11.2044 9 10.4413 9.31607 9.87868 9.87868C9.31607 10.4413 9 11.2044 9 12V15H15V12C15 11.2044 14.6839 10.4413 14.1213 9.87868C13.5587 9.31607 12.7956 9 12 9ZM16 17L8.00132 17C8.00088 17 8.00044 17 8 17C7.99956 17 7.99912 17 7.99868 17H7V19H17V17H16Z" fill="black"/>
</svg>
