<svg width="24" height="24" viewBox="0 0 24 24" fill="none" xmlns="http://www.w3.org/2000/svg">
<path fill-rule="evenodd" clip-rule="evenodd" d="M8.46447 3.46447C9.40215 2.52678 10.6739 2 12 2C13.3261 2 14.5979 2.52678 15.5355 3.46447C16.4732 4.40215 17 5.67392 17 7C17 8.32608 16.4732 9.59785 15.5355 10.5355C14.5979 11.4732 13.3261 12 12 12C10.6739 12 9.40215 11.4732 8.46447 10.5355C7.52678 9.59785 7 8.32608 7 7C7 5.67392 7.52678 4.40215 8.46447 3.46447ZM12 4C11.2044 4 10.4413 4.31607 9.87868 4.87868C9.31607 5.44129 9 6.20435 9 7C9 7.79565 9.31607 8.55871 9.87868 9.12132C10.4413 9.68393 11.2044 10 12 10C12.7956 10 13.5587 9.68393 14.1213 9.12132C14.6839 8.55871 15 7.79565 15 7C15 6.20435 14.6839 5.44129 14.1213 4.87868C13.5587 4.31607 12.7956 4 12 4Z" fill="black"/>
<path fill-rule="evenodd" clip-rule="evenodd" d="M10 16C8.14084 16 7.36862 16.3887 6.87868 16.8787C6.31607 17.4413 6 18.2043 6 19V21C6 21.5523 5.55228 22 5 22C4.44772 22 4 21.5523 4 21V19C4 17.6739 4.52678 16.4021 5.46447 15.4645C6.47481 14.4541 7.85916 14 10 14H14C16.1408 14 17.5252 14.4541 18.5355 15.4645C19.4732 16.4021 20 17.6739 20 19V21C20 21.5523 19.5523 22 19 22C18.4477 22 18 21.5523 18 21V19C18 18.2044 17.6839 17.4413 17.1213 16.8787C16.6314 16.3887 15.8592 16 14 16H10Z" fill="black"/>
</svg>
