<svg width="24" height="24" viewBox="0 0 24 24" fill="none" xmlns="http://www.w3.org/2000/svg">
<path fill-rule="evenodd" clip-rule="evenodd" d="M5.46447 3.46447C6.40215 2.52678 7.67392 2 9 2C10.3261 2 11.5979 2.52678 12.5355 3.46447C13.4732 4.40215 14 5.67392 14 7C14 8.32608 13.4732 9.59785 12.5355 10.5355C11.5979 11.4732 10.3261 12 9 12C7.67392 12 6.40215 11.4732 5.46447 10.5355C4.52678 9.59785 4 8.32608 4 7C4 5.67392 4.52678 4.40215 5.46447 3.46447ZM9 4C8.20435 4 7.44129 4.31607 6.87868 4.87868C6.31607 5.44129 6 6.20435 6 7C6 7.79565 6.31607 8.55871 6.87868 9.12132C7.44129 9.68393 8.20435 10 9 10C9.79565 10 10.5587 9.68393 11.1213 9.12132C11.6839 8.55871 12 7.79565 12 7C12 6.20435 11.6839 5.44129 11.1213 4.87868C10.5587 4.31607 9.79565 4 9 4Z" fill="black"/>
<path d="M7 16C6.20435 16 5.44129 16.3161 4.87868 16.8787C4.31607 17.4413 4 18.2043 4 19V21C4 21.5523 3.55228 22 3 22C2.44772 22 2 21.5523 2 21V19C2 17.6739 2.52678 16.4021 3.46447 15.4645C4.40215 14.5268 5.67392 14 7 14H11C12.1992 14 13.3007 14.4233 14.1622 15.1262C14.5901 15.4753 14.654 16.1053 14.3048 16.5332C13.9557 16.9611 13.3257 17.025 12.8978 16.6758C12.3793 16.2527 11.7208 16 11 16H7Z" fill="black"/>
<path d="M16.2483 2.16137C15.7133 2.02439 15.1685 2.34706 15.0315 2.88208C14.8945 3.41711 15.2172 3.96189 15.7522 4.09887C16.3975 4.2641 16.9695 4.6394 17.3779 5.16561C17.7864 5.69181 18.0081 6.339 18.0081 7.00512C18.0081 7.67125 17.7864 8.31843 17.3779 8.84464C16.9695 9.37085 16.3975 9.74615 15.7522 9.91137C15.2172 10.0484 14.8945 10.5931 15.0315 11.1282C15.1685 11.6632 15.7133 11.9859 16.2483 11.8489C17.3238 11.5735 18.2771 10.948 18.9578 10.071C19.6386 9.19397 20.0081 8.11534 20.0081 7.00512C20.0081 5.89491 19.6386 4.81627 18.9578 3.93926C18.2771 3.06225 17.3238 2.43675 16.2483 2.16137Z" fill="black"/>
<path d="M15 19C15 18.4477 15.4477 18 16 18H18V16C18 15.4477 18.4477 15 19 15C19.5523 15 20 15.4477 20 16V18H22C22.5523 18 23 18.4477 23 19C23 19.5523 22.5523 20 22 20H20V22C20 22.5523 19.5523 23 19 23C18.4477 23 18 22.5523 18 22V20H16C15.4477 20 15 19.5523 15 19Z" fill="black"/>
</svg>
